<?xml version="1.0" encoding="UTF-8" standalone="no"?>
<!DOCTYPE svg PUBLIC "-//W3C//DTD SVG 1.1//EN" "http://www.w3.org/Graphics/SVG/1.1/DTD/svg11.dtd">
<svg width="100%" height="100%" viewBox="0 0 872 191" version="1.1" xmlns="http://www.w3.org/2000/svg" xmlns:xlink="http://www.w3.org/1999/xlink" xml:space="preserve" xmlns:serif="http://www.serif.com/" style="fill-rule:evenodd;clip-rule:evenodd;stroke-linecap:round;stroke-linejoin:round;stroke-miterlimit:1.5;">
    <g id="Ebene1">
        <g transform="matrix(1,0,0,0.991435,0,1.61635)">
            <path d="M0,188.722L32.046,187.855C42.992,148.497 83.072,64.745 125.492,33.654C120.778,57.621 110.974,104.923 110.974,104.923L77.526,105.656C70.824,115.108 65.272,124.353 63.551,134.616L103.144,135.736C103.144,135.736 94.554,181.208 93.09,187.855L124.044,187.854L164.259,2.409L122.311,2.409C94.481,27.647 33.305,75.081 0,188.722Z" style="fill:rgb(254,80,0);"/>
        </g>
        <path d="M176.304,30.623L145.059,170.937L176.305,172.094L180.354,147.214C182.795,145.002 274.609,88.257 251.525,43.642C242.388,25.981 186.559,31.938 176.304,30.623ZM200.112,58.955L190.192,105.843C189.197,108.189 230.944,72.56 221.725,61.289C219.229,58.237 206.57,59.021 200.112,58.955Z" style="fill:rgb(254,80,0);"/>
        <path d="M338.162,32.803L334.087,55.581L295.753,55.767L288.9,87.435L318.902,88.546L315.939,110.214L284.457,110.399L277.049,146.511L316.124,146.326L311.493,174.104L241.492,173.92L271.492,32.618L338.162,32.803Z" style="fill:rgb(254,80,0);stroke:rgb(254,80,0);stroke-width:1px;"/>
        <path d="M352.978,32.618C356.503,33.751 427.774,28.558 429.874,49.745C432.614,77.396 410.005,106.531 395.942,124.403C414.03,159.221 450.02,158.479 450.02,158.479L443.167,191C404.044,184.813 377.006,163.478 362.054,126.997L352.609,174.104L322.421,174.104L352.978,32.618ZM376.218,62.094L363.625,120.8C363.625,120.8 402.933,79.015 396.961,64.873C393.607,60.953 385.501,62.176 376.218,62.094Z" style="fill:rgb(254,80,0);"/>
        <path d="M539.768,44.732C562.775,65.654 560.416,105.775 534.504,134.271C508.591,162.766 468.874,168.916 445.867,147.994C422.86,127.073 425.218,86.952 451.131,58.456C477.044,29.96 516.76,23.811 539.768,44.732ZM518.824,67.764C531.568,79.353 530.261,101.576 515.908,117.361C501.555,133.145 479.555,136.551 466.811,124.963C454.067,113.374 455.373,91.15 469.727,75.366C484.08,59.582 506.08,56.175 518.824,67.764Z" style="fill:rgb(254,80,0);"/>
        <path d="M576.089,36.246L605.719,36.615L581.088,150.138L621.831,150.324L617.016,177.918L546.829,176.621L576.089,36.246Z" style="fill:rgb(254,80,0);"/>
        <g>
            <path d="M633.108,104.129C633.236,103.075 634.105,102.229 635.147,101.996L651.879,102.129C652.715,102.098 653.369,102.491 653.893,103.188L653.893,175.772C653.281,176.429 652.683,176.764 652.091,176.938L635.255,176.813C634.441,176.796 633.513,176.137 633.072,174.901L633.108,104.129Z" style="fill:rgb(254,80,0);"/>
            <path d="M632.158,75.888C633.452,73.341 635.139,71.681 637.297,71.092L651.001,71.092C653.057,72.3 654.32,73.733 655.042,75.321L654.941,87.794C653.622,89.793 652.028,91.568 650.659,92.023L636.184,91.905C634.944,90.936 633.57,89.229 632.072,86.852L632.158,75.888Z" style="fill:rgb(254,80,0);"/>
        </g>
        <path d="M672.095,71.092C672.439,69.374 673.233,68.407 674.337,67.955L690.778,67.83C691.682,67.987 692.394,68.354 692.896,68.952L693.021,130.982L716.189,101.996L734.001,101.996C734.558,102.017 734.945,102.295 734.997,103.081L734.998,108.935L712.95,133.349L738.069,171.266L737.82,175.626C737.67,176.248 737.338,176.685 736.824,176.938L717.89,176.938L693.103,139.467L692.978,175.875C692.34,176.478 691.588,176.893 690.611,176.938L674.294,176.938C673.186,176.402 672.492,175.754 672.176,175.002L672.095,71.092Z" style="fill:rgb(254,80,0);"/>
        <path d="M762.046,144.68C762.046,144.68 809.088,145.897 809.618,143.349C811.478,116.478 805.67,100.191 776.65,99.825C758.001,99.59 742.672,111.959 741.012,134.832C740.85,156.066 745.131,193.911 806.972,172.935L807.171,159.007C796.555,162.223 761.486,171.838 762.046,144.68ZM762.004,132.046L791.054,132.046C790.709,119.76 787.306,115.125 776.534,114.871C765.703,114.615 762.691,123.369 762.004,132.046Z" style="fill:rgb(254,80,0);"/>
        <path d="M825.9,103.905C826.008,103.323 826.348,102.84 826.953,102.468C827.455,102.159 828.033,101.996 828.622,101.996C831.301,101.996 842.689,101.996 842.689,101.996C843.421,102.134 843.822,102.571 844.027,103.184L843.924,111.114C846.643,107.041 850.422,103.814 855.101,101.074C855.919,100.598 856.836,100.318 857.78,100.256C866.147,99.687 869.404,99.537 872,103.596L872,117.878C867.374,117.049 862.826,117.467 858.345,118.943C854.824,121.113 850.574,124.194 847.474,129.815C847.12,130.46 846.932,131.184 846.928,131.92C846.879,138.019 846.733,169.335 846.707,174.955C846.703,175.799 846.179,176.553 845.389,176.852C845.228,176.875 845.085,176.919 844.934,176.938L828.313,176.938C828.187,176.938 828.062,176.912 827.946,176.861C827.222,176.54 826.709,176.104 826.383,175.563C826.227,175.283 826.145,174.969 826.145,174.65C826.073,170.241 825.9,103.905 825.9,103.905Z" style="fill:rgb(254,80,0);"/>
    </g>
</svg>
