<?xml version="1.0" standalone="no"?>
<!DOCTYPE svg PUBLIC "-//W3C//DTD SVG 20010904//EN"
 "http://www.w3.org/TR/2001/REC-SVG-20010904/DTD/svg10.dtd">
<svg width="100%" height="100%" viewBox="0 0 872 191" version="1.1" xmlns="http://www.w3.org/2000/svg" xmlns:xlink="http://www.w3.org/1999/xlink" xml:space="preserve" xmlns:serif="http://www.serif.com/" style="fill-rule:evenodd;clip-rule:evenodd;stroke-linecap:round;stroke-linejoin:round;stroke-miterlimit:1.5;">

<g transform="translate(0.000000,193.000000) scale(0.100000,-0.100000)"
fill="#bc44a1" stroke="none">
<path d="M4086 1899 l-26 -20 0 -589 0 -589 28 -21 c26 -22 32 -22 277 -17
268 5 316 12 416 62 115 59 176 151 186 279 6 84 -12 162 -51 215 -33 45 -111
99 -153 107 -41 8 -42 18 -3 34 45 19 105 92 121 147 32 115 2 240 -75 311
-86 79 -194 102 -492 102 -189 0 -203 -1 -228 -21z m474 -191 c106 -54 109
-206 7 -282 -24 -18 -46 -22 -143 -24 l-114 -4 0 166 0 166 103 0 c87 0 110
-4 147 -22z m58 -526 c97 -51 121 -192 45 -264 -50 -48 -91 -58 -228 -58
l-125 0 0 176 0 176 133 -4 c113 -3 138 -7 175 -26z"/>
<path d="M3033 1782 l-103 -3 0 -885 0 -886 283 4 c262 3 286 5 342 26 101 37
179 116 212 215 16 47 18 110 21 610 2 352 -1 579 -7 615 -26 142 -113 244
-241 281 -68 20 -281 30 -507 23z m391 -305 c63 -42 61 -21 61 -577 0 -464 -1
-508 -18 -537 -26 -48 -63 -63 -157 -63 l-80 0 0 593 c0 327 3 597 8 601 13
14 159 0 186 -17z"/>
<path d="M15 1748 c3 -18 52 -402 110 -853 58 -451 107 -835 110 -852 l6 -33
143 0 142 0 93 553 c51 303 95 560 99 570 4 9 47 -238 96 -553 l90 -570 142 0
143 0 6 33 c3 17 52 403 110 857 57 454 107 837 110 853 l5 27 -155 0 -155 0
0 -27 c0 -30 -78 -1121 -83 -1163 l-3 -25 -7 25 c-3 14 -45 275 -92 580 -47
305 -88 567 -91 583 l-6 27 -114 0 c-110 0 -114 -1 -119 -22 -3 -13 -43 -273
-90 -578 -90 -580 -95 -613 -100 -608 -2 2 -23 274 -46 606 l-44 602 -153 0
-153 0 6 -32z"/>
<path d="M1520 895 l0 -885 150 0 150 0 0 885 0 885 -150 0 -150 0 0 -885z"/>
<path d="M2010 895 l0 -885 380 0 380 0 0 145 0 145 -230 0 -230 0 0 740 0
740 -150 0 -150 0 0 -885z"/>
<path d="M5444 1605 c-211 -46 -326 -218 -327 -486 0 -258 92 -403 288 -455
124 -33 287 -26 420 18 88 29 95 38 95 124 0 40 -4 76 -10 79 -5 3 -47 -6 -92
-21 -70 -24 -101 -28 -198 -28 -125 -1 -155 8 -205 62 -26 27 -55 106 -55 149
l0 23 278 0 c316 0 316 0 327 73 10 62 -13 203 -42 269 -27 60 -95 133 -152
163 -44 22 -154 45 -216 44 -27 0 -78 -7 -111 -14z m213 -183 c38 -27 65 -82
71 -144 l5 -48 -188 0 -187 0 7 43 c13 77 58 142 115 166 42 18 142 8 177 -17z"/>
<path d="M6545 1605 c-24 -9 -63 -38 -98 -75 -33 -33 -61 -60 -63 -60 -2 0 -4
27 -4 60 0 72 -4 75 -108 75 -61 0 -76 -3 -88 -19 -21 -29 -21 -883 0 -912 13
-16 27 -19 109 -19 65 0 99 4 110 14 15 12 17 45 17 293 l0 279 31 45 c40 58
103 104 143 104 17 0 49 -5 70 -11 35 -10 42 -9 53 7 15 20 18 180 4 202 -9
14 -70 32 -111 31 -14 0 -43 -6 -65 -14z"/>
<path d="M7255 1605 c-24 -9 -63 -38 -98 -75 -33 -33 -61 -60 -63 -60 -2 0 -4
27 -4 60 0 72 -4 75 -108 75 -61 0 -76 -3 -88 -19 -21 -29 -21 -883 0 -912 13
-16 27 -19 109 -19 65 0 99 4 110 14 15 12 17 45 17 293 l0 279 31 45 c40 58
103 104 143 104 17 0 49 -5 70 -11 35 -10 42 -9 53 7 15 20 18 180 4 202 -9
14 -70 32 -111 31 -14 0 -43 -6 -65 -14z"/>
<path d="M7543 1604 c-35 -8 -46 -28 -35 -66 13 -47 299 -814 313 -841 7 -12
17 -25 22 -29 7 -4 -12 -66 -52 -168 -56 -144 -62 -164 -48 -177 31 -32 197
-28 237 5 23 19 420 1183 420 1232 0 24 -6 30 -36 40 -50 17 -173 9 -188 -12
-6 -9 -54 -153 -106 -321 -52 -169 -98 -303 -101 -299 -3 4 -54 144 -112 311
-59 168 -111 309 -117 315 -11 11 -157 18 -197 10z"/>
</g>
</svg>
