<?xml version="1.0" encoding="UTF-8" standalone="no"?>
<!DOCTYPE svg PUBLIC "-//W3C//DTD SVG 1.1//EN" "http://www.w3.org/Graphics/SVG/1.1/DTD/svg11.dtd">
<svg width="100%" height="100%" viewBox="0 0 728 203" version="1.1" xmlns="http://www.w3.org/2000/svg" xmlns:xlink="http://www.w3.org/1999/xlink" xml:space="preserve" xmlns:serif="http://www.serif.com/" style="fill-rule:evenodd;clip-rule:evenodd;stroke-linejoin:round;stroke-miterlimit:2;">
    <path d="M0,0L27.942,0L27.806,88.333L63.431,88.269L63.768,0L93.115,0L93.115,203L64.181,203L64.181,115.924L27.6,115.924L27.6,203L0,203L0,0Z" style="fill:rgb(214,255,0);"/>
    <path d="M111.369,1.37L138.809,1.342C138.809,1.342 139.078,138.113 139.107,152.908C139.11,154.144 139.192,155.378 139.353,156.603C141.141,170.25 147.449,175.629 157.12,174.872C167.204,175.25 173.126,168.372 174.792,154.076C174.916,153.018 174.978,151.954 174.98,150.889C175.006,136.438 175.161,1.469 175.161,1.469L202.722,1.469L202.722,155.35C202.723,158.071 202.503,160.787 202.065,163.472C197.829,189.635 183.493,203.726 156.729,203C133.792,202.607 118.561,192.748 112.839,171.212C111.836,167.489 111.329,163.65 111.33,159.794C111.327,134.787 111.369,1.37 111.369,1.37Z" style="fill:rgb(214,255,0);"/>
    <path d="M289.184,72.169L317.4,72.169C320.863,27.228 306.368,1.326 268.691,0C245.468,0.038 229.274,11.002 221.731,35.415C220.172,40.441 219.38,45.673 219.38,50.935C219.378,71.286 219.378,136.773 219.378,154.67C219.377,158.495 219.884,162.303 220.883,165.995C227.812,191.886 244.068,203.397 268.045,203.027C293.619,203.726 309.823,191.478 315.85,165.167C316.634,161.798 317.03,158.351 317.03,154.892C317.058,142.259 317.058,103.772 317.058,103.772L258.307,103.772L258.307,130.902L289.047,130.902C289.95,156.159 286.805,175.69 269.337,174.964C257.902,175.854 250.411,169.355 247.577,154.127C247.223,152.258 247.047,150.36 247.05,148.459C247.058,133.953 247.18,52.939 247.18,52.939C248.063,38.478 253.214,27.618 268.029,27.772C287.205,27.971 289.235,45.15 289.184,72.169Z" style="fill:rgb(214,255,0);"/>
    <path d="M379.614,0.454C405.055,-0.614 421.085,11.211 426.628,29.623C427.324,31.901 427.766,34.249 427.948,36.624C431.56,83.447 431.469,120.774 428.365,164.002C428.2,166.283 427.729,168.532 426.963,170.688C421.456,186.235 407.03,202.669 383.023,203C364.17,204.528 349.71,196.762 339.241,180.916C336.001,175.998 334.119,170.311 333.785,164.431C331.33,120.319 331.871,77.244 334.644,32.743C334.647,32.687 334.652,32.632 334.658,32.576C335.943,20.837 350.475,-0.155 379.614,0.454ZM380.206,27.423C389.839,27.336 396.359,31.965 399.468,41.763C400.521,45.003 401.058,48.388 401.059,51.794C401.056,66.403 401.082,138.497 401.087,152.666C401.089,155.787 400.515,158.883 399.395,161.796C396.516,169.329 390.763,173.811 381.681,174.763C370.85,175.34 364.011,169.778 361.312,157.85C360.77,155.456 360.494,153.011 360.488,150.557C360.452,136.41 360.277,67.016 360.24,52.594C360.232,49.22 360.761,45.866 361.809,42.659C364.621,33.983 370.417,28.542 380.206,27.423Z" style="fill:rgb(214,255,0);"/>
    <g transform="matrix(1,0,0,1,-144,-21.9498)">
        <path d="M633.108,104.129C633.236,103.075 634.105,102.229 635.147,101.996L651.879,102.129C652.715,102.098 653.369,102.491 653.893,103.188L653.893,175.772C653.281,176.429 652.683,176.764 652.091,176.938L635.255,176.813C634.441,176.796 633.513,176.137 633.072,174.901L633.108,104.129Z" style="fill:rgb(214,255,0);"/>
        <path d="M632.158,75.888C633.452,73.341 635.139,71.681 637.297,71.092L651.001,71.092C653.057,72.3 654.32,73.733 655.042,75.321L654.941,87.794C653.622,89.793 652.028,91.568 650.659,92.023L636.184,91.905C634.944,90.936 633.57,89.229 632.072,86.852L632.158,75.888Z" style="fill:rgb(214,255,0);"/>
    </g>
    <g transform="matrix(1,0,0,1,-144,-21.9498)">
        <path d="M672.095,71.092C672.439,69.374 673.233,68.407 674.337,67.955L690.778,67.83C691.682,67.987 692.394,68.354 692.896,68.952L693.021,130.982L716.189,101.996L734.001,101.996C734.558,102.017 734.945,102.295 734.997,103.081L734.998,108.935L712.95,133.349L738.069,171.266L737.82,175.626C737.67,176.248 737.338,176.685 736.824,176.938L717.89,176.938L693.103,139.467L692.978,175.875C692.34,176.478 691.588,176.893 690.611,176.938L674.294,176.938C673.186,176.402 672.492,175.754 672.176,175.002L672.095,71.092Z" style="fill:rgb(214,255,0);"/>
    </g>
    <g transform="matrix(1,0,0,1,-222.145,-21.9498)">
        <path d="M672.095,71.092C672.439,69.374 673.233,68.407 674.337,67.955L690.778,67.83C691.682,67.987 692.394,68.354 692.896,68.952L692.978,175.875C692.34,176.478 691.588,176.893 690.611,176.938L674.294,176.938C673.186,176.402 672.492,175.754 672.176,175.002L672.095,71.092Z" style="fill:rgb(214,255,0);"/>
    </g>
    <g transform="matrix(1,0,0,1,-144,-21.9498)">
        <path d="M762.046,144.68C762.046,144.68 809.088,145.897 809.618,143.349C811.478,116.478 805.67,100.191 776.65,99.825C758.001,99.59 742.672,111.959 741.012,134.832C740.85,156.066 745.131,193.911 806.972,172.935L807.171,159.007C796.555,162.223 761.486,171.838 762.046,144.68ZM762.004,132.046L791.054,132.046C790.709,119.76 787.306,115.125 776.534,114.871C765.703,114.615 762.691,123.369 762.004,132.046Z" style="fill:rgb(214,255,0);"/>
    </g>
    <g transform="matrix(1,0,0,1,-144,-21.9498)">
        <path d="M825.9,103.905C826.008,103.323 826.348,102.84 826.953,102.468C827.455,102.159 828.033,101.996 828.622,101.996C831.301,101.996 842.689,101.996 842.689,101.996C843.421,102.134 843.822,102.571 844.027,103.184L843.924,111.114C846.643,107.041 850.422,103.814 855.101,101.074C855.919,100.598 856.836,100.318 857.78,100.256C866.147,99.687 869.404,99.537 872,103.596L872,117.878C867.374,117.049 862.826,117.467 858.345,118.943C854.824,121.113 850.574,124.194 847.474,129.815C847.12,130.46 846.932,131.184 846.928,131.92C846.879,138.019 846.733,169.335 846.707,174.955C846.703,175.799 846.179,176.553 845.389,176.852C845.228,176.875 845.085,176.919 844.934,176.938L828.313,176.938C828.187,176.938 828.062,176.912 827.946,176.861C827.222,176.54 826.709,176.104 826.383,175.563C826.227,175.283 826.145,174.969 826.145,174.65C826.073,170.241 825.9,103.905 825.9,103.905Z" style="fill:rgb(214,255,0);"/>
    </g>
</svg>
